<svg width="157" height="127" viewBox="0 0 157 127" fill="none" xmlns="http://www.w3.org/2000/svg">
<g style="mix-blend-mode:screen">
<mask id="mask0_1601:1020" style="mask-type:alpha" maskUnits="userSpaceOnUse" x="0" y="0" width="157" height="127">
<rect x="30.7656" width="145.882" height="60.8565" transform="rotate(30.3668 30.7656 0)" fill="#C4C4C4"/>
</mask>
<g mask="url(#mask0_1601:1020)">
<path d="M83.4625 73.5602C79.6546 71.3292 77.396 68.825 76.552 65.9005L76.4255 65.4598L75.9739 65.5618C73.0207 66.2615 69.7374 65.5185 65.9136 63.2781L65.6644 63.132C58.1972 58.7569 56.5036 52.9296 60.6591 45.8373L66.9208 35.1503L71.959 38.1022L65.5157 49.0992C63.2848 52.9068 63.6165 55.587 66.5334 57.296L70.6329 59.698C73.5497 61.407 76.05 60.3861 78.2755 56.5878L219.416 -184.301L224.449 -181.352L83.3138 59.5274C82.5006 60.9154 80.004 65.1763 84.3104 67.6994L88.4417 70.1201C92.7427 72.6401 95.2339 68.3884 96.0525 66.9912L240.053 -178.779L245.118 -175.812L101.299 69.6488C97.1433 76.7411 91.2372 78.1156 83.7435 73.7249L83.4625 73.5602Z" fill="white"/>
<path d="M76.3699 65.4829C76.3917 65.4726 76.4165 65.4679 76.4421 65.4692C75.7991 62.7123 76.4733 59.6892 78.4116 56.3566L78.2544 56.625C76.0289 60.4232 73.4809 61.4162 70.5694 59.7103L66.4646 57.3052C63.553 55.5993 63.216 52.9159 65.4415 49.1177L212.308 -201.544L207.275 -204.493L60.5902 45.8588C56.4347 52.9511 58.1257 58.7707 65.6247 63.1645L65.8686 63.3074C69.6764 65.5385 72.9651 66.2846 75.9262 65.5958L76.3805 65.4891L76.3699 65.4829Z" fill="#DDDDDD"/>
<path d="M63.895 89.012C63.4086 89.2189 62.8605 88.8977 62.8032 88.3722L61.9715 80.741C61.9013 80.0973 62.5945 79.6484 63.1532 79.9758L71.0486 84.6019C71.6073 84.9292 71.5546 85.7533 70.9588 86.0068L63.895 89.012Z" fill="#DDDDDD"/>
</g>
</g>
</svg>
